# xmcd
#
# Track frame offsets:
#	150
#	14260
#	29925
#	44027
#	59532
#	73460
#	89660
#	103605
#	118455
#	132865
#	147182
#	161275
#	175757
#	189012
#	201637
#	217810
#
# Disc length: 3093 seconds
#
# Revision: 0
# Processed by: cddbd v1.5PL3 Copyright (c) Steve Scherf et al.
# Submitted via: dBpowerAMP V4.0
#
DISCID=fa0c1310
DTITLE=Various Artist - Lady Luck Blues
DYEAR=1900
DGENRE=Blues
TTITLE0=Bessie Smith - Lady Luck Blues
TTITLE1=Bessie Smith - Outside of that
TTITLE2=Bessie Smith - Keeps on a-raining
TTITLE3=Bessie Smith - Down hearted Blues
TTITLE4=Bessie Smith - Oh Daddy Blues
TTITLE5=Bessie Smith - If You Don't, I know who will
TTITLE6=Bessie Smith - Gulf Coast Blues
TTITLE7=Bessie Smith - Aggravatin' Papa
TTITLE8=Bessie Smith - My Sweet went away
TTITLE9=Bessie Smith - Eavesdropper's Blues
TTITLE10=Bessie Smith - Black Mountain Blues
TTITLE11=Bessie Smith - Frosty Morning Blues
TTITLE12=Bessie Smith - Baby won't you please come home
TTITLE13=Bessie Smith - Sam Jones Blues
TTITLE14=Bessie Smith - Beale Street Mama
TTITLE15=Bessie Smith - Whoa, Tillie, Take your time
EXTD=
EXTT0=
EXTT1=
EXTT2=
EXTT3=
EXTT4=
EXTT5=
EXTT6=
EXTT7=
EXTT8=
EXTT9=
EXTT10=
EXTT11=
EXTT12=
EXTT13=
EXTT14=
EXTT15=
PLAYORDER=
